<svg width="48" height="48" viewBox="0 0 48 48" fill="none" xmlns="http://www.w3.org/2000/svg">
<path fill-rule="evenodd" clip-rule="evenodd" d="M21.0647 46.4314L22.6323 48C23.3749 47.2916 24.1048 46.5326 24.8283 45.8116L35.8018 34.8821C36.246 34.433 40.0858 30.6507 40.1492 30.5178L34.5895 24.9772C34.4943 24.9961 34.4753 25.0467 34.3864 25.1353L33.1361 26.3813C32.8696 26.6406 33.0029 26.5584 33.1869 26.8494C33.244 26.9379 33.3138 27.0391 33.371 27.134C33.4217 27.2289 33.4852 27.3111 33.5296 27.4123L33.6439 27.6906C33.6629 27.7665 33.6883 27.7728 33.7327 27.912C33.7454 27.9562 33.7327 27.9246 33.7518 27.9752L33.9231 28.5381C33.9612 28.7152 33.9803 29.0251 34.0056 29.2339C34.031 29.4932 34.0056 29.8094 33.9866 30.0814C33.9485 30.5305 33.9295 30.4609 33.8597 30.8467L33.8152 31.0428C33.8025 31.1061 33.8025 31.125 33.7772 31.1946C33.7518 31.2832 33.7772 31.2452 33.7645 31.3274L33.2504 32.7316C33.206 32.8328 33.1361 32.9213 33.1044 33.0162C32.9965 33.3135 32.8315 33.5665 32.6855 33.8448C32.5903 34.0282 32.4634 34.2243 32.3682 34.395C32.2603 34.5911 32.127 34.7619 32.0128 34.958C31.8795 35.1857 31.6066 35.5209 31.5241 35.6537C31.4098 35.8434 31.4225 35.7929 31.3146 35.932C31.2702 35.9889 31.2639 36.0205 31.2385 36.0648L30.7561 36.6277C29.9564 37.5828 29.5185 37.9939 28.649 38.8605C28.465 39.0439 28.2746 39.24 28.0842 39.417C27.9953 39.5056 27.7795 39.689 27.6716 39.727C27.6716 39.727 27.1956 40.0495 27.1068 40.0875C27.0623 40.1065 27.0814 40.0875 27.037 40.1191L26.8973 40.1887C26.8656 40.2013 26.8592 40.214 26.8275 40.233C26.561 40.3911 25.8374 40.6694 25.5582 40.6947C25.4693 40.701 25.3805 40.7326 25.2916 40.7326H25.006C24.6062 40.7137 24.4412 40.5935 24.1682 40.3152L9.60256 25.7994C8.85365 25.0594 8.09839 24.313 7.35583 23.5667C7.03849 23.2378 6.70847 22.7887 6.67039 22.4472C6.66404 22.3966 6.67038 22.3523 6.66404 22.3017C6.65769 22.2638 6.65769 22.2701 6.65769 22.2258C6.65769 22.1309 6.70212 21.9791 6.7402 21.8843C6.85444 21.5996 7.05753 21.4289 7.10831 21.334L5.54067 19.7717L0 25.2997C0.190401 25.4958 1.45974 26.7988 1.57398 26.8494L1.65014 26.7924C1.67553 26.7671 1.70726 26.7355 1.739 26.7039C1.84689 26.5964 2.22769 26.3497 2.4054 26.3307C2.46252 26.3244 2.51964 26.3181 2.57676 26.3181C2.86236 26.3244 3.00834 26.4825 3.0845 26.5205C3.16066 26.5584 3.5605 26.8873 3.59858 26.9189C4.72195 28.0132 5.8707 29.1833 6.98772 30.2901L20.5443 43.8066C20.7728 44.0279 20.9949 44.2493 21.2234 44.477C21.4074 44.6604 22.0421 45.1854 22.0611 45.3752C22.0675 45.4447 22.0738 45.3815 22.0484 45.4637C22.004 45.5839 21.8707 45.6914 21.7565 45.7863C21.5217 45.976 21.2805 46.1974 21.0647 46.4314Z" fill="#2B2A29"/>
<path fill-rule="evenodd" clip-rule="evenodd" d="M26.961 1.56859L25.387 0L7.85742 17.4695C8.29534 17.9376 8.78404 18.3993 9.241 18.8547L13.0681 22.6687C13.1696 22.7635 13.2648 22.89 13.3727 22.9722C13.3981 22.9912 13.4235 23.0039 13.4489 22.9912C13.5568 22.9343 14.1407 22.3208 14.2232 22.2322C14.3691 22.0931 14.9594 21.5491 15.0038 21.4353C15.0102 21.372 15.0165 21.429 14.9911 21.372C14.9784 21.3594 14.9467 21.3151 14.934 21.2961C14.8642 21.2076 14.788 21.1254 14.7309 21.0242C14.6801 20.9356 14.604 20.8407 14.5722 20.7459C14.5215 20.613 14.4072 20.4612 14.3691 20.3221L14.2105 19.9173C14.166 19.7908 14.0708 19.367 14.0518 19.2089C14.0391 19.1077 14.0391 19.0318 14.0201 18.9369C14.0074 18.8421 14.0201 18.7598 14.0074 18.6586L13.9947 18.374C14.001 18.2728 14.0074 18.2032 14.0074 18.0957C14.0137 17.9313 14.0455 17.7731 14.0645 17.6087C14.1216 17.1153 14.2612 16.603 14.4326 16.135L14.8007 15.1736C14.8198 15.123 14.8515 15.0787 14.8705 15.0281C14.915 14.9269 14.9721 14.8384 15.0102 14.7435L15.3021 14.1932C15.4989 13.8137 15.7591 13.4342 15.9812 13.0674L16.5588 12.2388C16.7618 11.9795 17.0221 11.6316 17.2378 11.3913C17.3204 11.3027 17.3648 11.2268 17.4536 11.1256L19.9098 8.60194C20.1827 8.3363 20.4302 8.17817 20.7412 8.01372L21.0268 7.84927C21.0966 7.805 21.0966 7.81765 21.1601 7.77337C21.3251 7.67217 21.9598 7.38755 22.1438 7.36858C22.2454 7.36225 22.3279 7.3243 22.4295 7.30533C22.677 7.25473 23.0133 7.24208 23.2609 7.299C23.3561 7.3243 23.4513 7.36858 23.5465 7.41918C23.6607 7.48243 23.7305 7.56465 23.8321 7.66585L38.3914 22.1753C39.1403 22.9217 39.8956 23.668 40.6381 24.4143C41.0888 24.8697 41.5901 25.5528 41.2538 26.1537L41.1268 26.3751C41.0951 26.4257 40.9301 26.6281 40.9174 26.6597C40.9364 26.7166 42.4025 28.1777 42.4787 28.203C42.5295 28.203 47.537 23.1873 48.0003 22.7193C47.9432 22.5738 46.8389 21.5302 46.5533 21.2392C46.5025 21.1886 46.4644 21.1254 46.401 21.1696C46.3883 21.1823 46.3819 21.1886 46.3629 21.2013C46.2613 21.2961 46.0519 21.4669 45.9376 21.5175L45.7663 21.5997C45.4807 21.7136 45.2268 21.6756 44.9285 21.4985C44.662 21.3404 44.662 21.3214 44.4208 21.0874C43.272 19.9742 42.1487 18.8357 41.0189 17.7036L27.437 4.16815C27.0435 3.78233 26.3961 3.20675 26.0725 2.85888C25.8059 2.57426 26.0344 2.38451 26.2756 2.18844C26.4469 2.04929 26.3898 2.13151 26.6183 1.91014C26.7325 1.80261 26.8468 1.68876 26.961 1.56859Z" fill="#2B2A29"/>
<path fill-rule="evenodd" clip-rule="evenodd" d="M22.7087 24.9202C22.7087 23.0417 24.2066 21.549 26.0915 21.549C27.9194 21.549 29.4299 23.048 29.4299 24.9202C29.4299 26.7418 27.9321 28.2534 26.0535 28.2534C24.2256 28.2534 22.7087 26.7418 22.7087 24.9202ZM21.1157 24.7304C21.1157 25.54 21.2109 26.2168 21.5283 26.8873C21.7821 27.4249 22.0233 27.8107 22.4168 28.2345C22.4676 28.2914 22.4866 28.323 22.5437 28.3799L22.8293 28.6456C23.4196 29.1389 24.0923 29.5058 24.8539 29.6955C24.9872 29.7272 25.1967 29.7841 25.3426 29.7841V31.6563H23.0578V33.111H25.3426V35.2742H26.8024V33.111H29.0872V31.6563H26.8024V29.7841C26.9483 29.7841 27.1324 29.7272 27.272 29.6955C27.4751 29.6513 27.9194 29.4995 28.1034 29.4109C28.4969 29.2148 28.7698 29.082 29.138 28.7847L29.8551 28.0953C30.2677 27.564 30.1915 27.6716 30.5152 27.0897C30.6739 26.8114 30.8135 26.3876 30.8896 26.0713C31.08 25.2997 31.0737 24.4521 30.8833 23.6868C30.6802 22.9089 30.3629 22.3459 29.8742 21.7261C29.5505 21.3213 29.0047 20.8849 28.5668 20.6319C27.8813 20.2397 27.0499 19.9614 26.2439 19.9614C25.5521 19.9614 25.0316 20.012 24.397 20.246C23.7559 20.4864 23.4259 20.6825 22.8865 21.1126C22.8166 21.1695 22.7849 21.2074 22.7214 21.258C22.5437 21.4098 22.5691 21.3972 22.4295 21.5553C22.3724 21.6186 22.3343 21.6439 22.2772 21.7134C22.1883 21.8336 22.1058 21.9348 22.017 22.0487C21.7948 22.3712 21.5346 22.8456 21.4077 23.2188C21.3569 23.3706 21.3061 23.5097 21.268 23.6742C21.1919 23.9588 21.1157 24.3636 21.1157 24.7304Z" fill="#E31E24"/>
<path fill-rule="evenodd" clip-rule="evenodd" d="M18.7291 27.235C18.5451 27.0895 18.3864 26.7986 18.2468 26.6215C18.196 26.5582 18.2087 26.5456 18.1706 26.476L18.05 26.2546C18.0056 26.1661 17.9548 26.0712 17.9231 25.9447C17.9167 25.9194 17.9167 25.9131 17.904 25.8688C17.8533 25.7043 17.8596 25.6664 17.8406 25.5778L17.7898 25.3565C17.7708 25.2363 17.7644 25.0971 17.7581 24.9833C17.7454 24.7366 17.7771 24.49 17.8088 24.2433L17.9231 23.8195C17.9548 23.7626 18.0246 23.5349 18.1008 23.3831C18.1262 23.3325 18.1579 23.2945 18.1896 23.2439C18.2404 23.1491 18.2721 23.0542 18.3356 22.9593L18.4499 22.8138C18.4943 22.7696 18.5514 22.719 18.5958 22.6684C18.6276 22.6304 18.6656 22.5735 18.7101 22.5292C18.8941 22.3268 19.1226 22.175 19.3257 22.0359C19.4146 21.9663 19.5351 21.9094 19.624 21.8651L19.8525 21.7702C19.9858 21.7133 19.9413 21.7449 20.0175 21.7196C20.0492 21.707 20.0111 21.7259 20.0365 21.7133C20.0619 21.7006 20.0556 21.7006 20.081 21.688C20.1571 21.6437 20.284 21.65 20.3666 21.6247C20.5316 21.5805 20.6585 21.5552 20.8299 21.5425C20.887 21.5362 20.9187 21.5488 20.9758 21.5425L21.2741 21.5362C21.382 21.5299 21.6042 21.5805 21.7184 21.5994C21.8009 21.6184 21.9278 21.6374 22.004 21.669L22.1436 21.7133C22.2706 21.7576 22.4038 21.7892 22.5054 21.8651C22.5498 21.8904 22.6323 21.9094 22.7212 21.96C22.772 21.9853 22.8227 22.0169 22.8672 22.0422L23.1591 22.2446C23.2607 22.3205 23.3432 22.4154 23.4447 22.5039C23.762 22.7822 24.0032 23.1744 24.1492 23.5539L24.3142 24.0093C24.3459 24.1105 24.3586 24.2117 24.384 24.3129C24.3967 24.3824 24.3904 24.4077 24.4031 24.4583C24.4221 24.5722 24.4031 24.6481 24.4284 24.7493C24.4411 24.7936 24.4348 24.7493 24.4284 24.8062C24.4221 24.8442 24.4221 24.8505 24.4221 24.8821C24.4158 25.2173 24.3967 25.2869 24.3459 25.6158C24.3142 25.8182 24.2254 26.0016 24.1492 26.1914C23.9969 26.5582 23.7684 26.8998 23.4701 27.1907C23.2353 27.4121 22.9687 27.6461 22.6958 27.7789C22.6006 27.8232 22.499 27.8991 22.3975 27.9371L21.8009 28.1078C21.6803 28.1458 21.4518 28.1774 21.3376 28.1774C21.2361 28.1774 21.1409 28.1964 21.0393 28.1837C20.8933 28.1648 20.7537 28.1837 20.6014 28.1521C20.4554 28.1205 20.3158 28.1142 20.1635 28.0572C20.081 28.0256 19.9477 28.013 19.8715 27.9687C19.808 27.9307 19.7954 27.9181 19.7255 27.8928L19.4463 27.7726C19.3765 27.741 19.3067 27.6777 19.2305 27.6398C19.0401 27.5449 18.8941 27.3615 18.7291 27.235ZM23.0512 17.2668C23.0322 17.2036 22.9814 17.1403 22.937 17.0708L22.2388 15.9955C22.1246 15.7931 21.9215 15.4959 21.7946 15.3124L21.6803 15.11C21.6296 15.0405 21.6803 15.0784 21.5597 14.9203C21.4963 14.8444 21.4963 14.8001 21.4391 14.7242C21.3693 14.6293 21.2614 14.4269 21.2043 14.3447C21.1218 14.2309 21.0964 14.3194 21.0583 14.3827L20.9441 14.5724C20.8235 14.7811 20.6775 14.9709 20.5633 15.1923L20.3919 15.4706C20.2523 15.654 20.1571 15.8248 20.0302 16.0145C19.9604 16.1157 19.8906 16.2738 19.8144 16.375C19.7128 16.5015 19.6748 16.6027 19.5986 16.7356C19.5542 16.8178 19.4907 16.881 19.4526 16.9633C19.4399 16.9949 19.4526 16.9633 19.4399 16.9886C19.4399 16.9949 19.4399 17.0075 19.4399 17.0075C19.4272 17.0455 19.4082 17.0518 19.3765 17.0898C19.3384 17.1277 19.2813 17.2226 19.2622 17.2668C19.3257 17.3364 19.4082 17.2985 19.4907 17.2985C19.5288 17.3048 19.5288 17.3048 19.5669 17.3048L20.246 17.2921C20.2523 17.2921 20.2587 17.2921 20.2587 17.2921C20.4237 17.2921 20.4808 17.2668 20.4871 17.406V17.5831C20.4681 17.7159 20.4745 17.678 20.4808 17.8234L20.4871 17.9879C20.4871 18.0511 20.4871 18.1017 20.4871 18.1587L20.4935 18.3231C20.4935 18.3294 20.4935 18.3484 20.4935 18.3547C20.4935 18.3547 20.4935 18.3611 20.4935 18.3674L20.4871 19.4932C20.4935 19.5881 20.5316 19.9297 20.4618 19.9866C20.43 20.0119 20.1888 20.0182 20.1063 20.0498C20.0302 20.0815 20.0556 20.0878 19.9858 20.0941L19.4019 20.2522C19.2749 20.2965 19.0591 20.3914 18.9322 20.461C18.8751 20.4926 18.8941 20.4673 18.818 20.5116L18.5895 20.6444C18.342 20.7456 17.5232 21.416 17.3392 21.6943C17.3138 21.7386 17.2884 21.7576 17.2503 21.7955C17.1361 21.9094 17.0917 22.0295 16.9838 22.1371L16.7489 22.5292C16.7489 22.5355 16.7489 22.5355 16.7426 22.5545L16.4951 23.0985C16.4824 23.1491 16.457 23.1617 16.4443 23.2123L16.2222 24.1041C16.2095 24.1674 16.2095 24.1484 16.2095 24.218C16.2031 24.2686 16.1841 24.2876 16.1841 24.3318C16.1841 24.3888 16.1714 24.3824 16.1777 24.4394C16.1841 24.4963 16.1777 24.4963 16.1714 24.5532L16.165 25.0086C16.165 25.0529 16.165 25.0782 16.165 25.1224C16.1714 25.4007 16.2412 25.679 16.2856 25.951L16.3364 26.1534C16.3554 26.223 16.3872 26.2673 16.3999 26.3368C16.4189 26.4507 16.5458 26.7543 16.603 26.8618L16.6728 27.0073C16.6982 27.0832 16.7489 27.1338 16.7743 27.2097L16.9013 27.4437C16.952 27.5259 16.9965 27.6018 17.0409 27.6714C17.2249 27.9371 17.6184 28.3861 17.8596 28.5759C17.9421 28.6391 18.0056 28.7024 18.0817 28.7656C18.196 28.8542 18.2277 28.8479 18.2975 28.9048C18.38 28.968 18.4372 28.9933 18.5197 29.0439C18.5958 29.0882 18.6529 29.1388 18.7355 29.1704L18.9576 29.2843C19.0337 29.3349 19.1036 29.3538 19.1734 29.3918L19.624 29.5499L20.3031 29.708C20.3729 29.7144 20.4491 29.7397 20.5189 29.7397C20.6014 29.746 20.6775 29.7523 20.7537 29.7586C20.8997 29.7776 21.4011 29.7713 21.547 29.7397L21.839 29.7144C21.8707 29.708 21.8644 29.7144 21.8898 29.7144C21.9405 29.7144 21.9532 29.6954 22.004 29.6827C22.0484 29.6764 22.0802 29.6764 22.1246 29.6638C22.169 29.6511 22.2008 29.6385 22.2452 29.6258C22.2515 29.6195 22.2833 29.6132 22.3023 29.6068L22.4673 29.5626C22.5244 29.5436 22.5371 29.5436 22.5816 29.5373C22.6323 29.5309 22.6577 29.512 22.7085 29.4867L22.772 29.4614C22.8672 29.4424 22.9687 29.3791 23.0639 29.3538C23.2162 29.3096 23.3749 29.1957 23.5272 29.1325L24.0032 28.8162C24.238 28.6328 24.4856 28.4051 24.7014 28.2027C24.7966 28.1142 24.8029 28.0699 24.8854 27.9813C24.9679 27.9054 24.9806 27.8612 25.0441 27.7726C25.0822 27.7157 25.1393 27.6651 25.1774 27.6018C25.2091 27.5576 25.1901 27.5829 25.2027 27.5449L25.3931 27.2223C25.4312 27.1591 25.4376 27.1654 25.463 27.1085C25.5391 26.9314 25.6597 26.7416 25.7232 26.5519L25.8311 26.223C25.8374 26.185 25.8501 26.1471 25.8565 26.1091C25.8691 26.0585 25.8691 26.0585 25.8882 26.0016C25.9009 25.9637 25.9009 25.9257 25.9136 25.8878L25.9834 25.4387C25.9897 25.4134 25.9834 25.4134 25.9897 25.3818L26.0024 25.2679C26.0024 25.2426 26.0024 25.23 26.0088 25.211C26.0088 25.173 26.0024 25.192 26.0088 25.1477C26.0278 25.0592 26.0151 24.9643 26.0215 24.8695C26.0278 24.7872 26.0088 24.7303 26.0088 24.6481C26.0088 24.3824 25.9643 24.0029 25.8882 23.7373C25.8818 23.712 25.8755 23.693 25.8691 23.674L25.793 23.3831C25.7803 23.3515 25.7613 23.3072 25.7422 23.2756C25.7295 23.225 25.7359 23.1933 25.7232 23.1554L25.6724 23.0415C25.647 22.9656 25.5899 22.8708 25.5645 22.8012C25.4883 22.6114 25.2916 22.2509 25.171 22.0928C25.1075 22.0169 25.0568 21.9347 24.9996 21.8651C24.8092 21.6121 24.5744 21.3907 24.3523 21.163C24.2761 21.0871 24.2063 21.0618 24.1365 20.9859L23.7049 20.7013C23.4955 20.5685 23.4637 20.5748 23.3749 20.5179C23.3368 20.4989 23.3051 20.4863 23.267 20.461C23.1908 20.423 23.121 20.3914 23.0385 20.3598L22.81 20.2712H22.8037L22.1436 20.0688C21.7374 19.9929 21.8707 19.9929 21.8453 19.5691C21.839 19.5185 21.839 19.5059 21.839 19.4553V18.4306C21.8326 18.3547 21.858 18.2409 21.858 18.2156L21.8326 17.6969C21.8326 17.6653 21.8326 17.678 21.839 17.64C21.8453 17.5768 21.839 17.5957 21.8326 17.5262C21.8073 17.3111 21.8073 17.2732 21.9913 17.2921C22.0675 17.2985 22.0802 17.2858 22.1436 17.2921C22.1944 17.2921 22.1754 17.2921 22.2198 17.2921C22.2769 17.2921 22.2579 17.2985 22.3023 17.2985C22.3277 17.2985 22.315 17.2985 22.3404 17.2921H22.3467C22.48 17.2921 22.4737 17.2795 22.5244 17.2795L22.7466 17.2858C22.8037 17.2858 22.8418 17.2858 22.8989 17.2858C22.9433 17.2858 23.0068 17.2985 23.0512 17.2668Z" fill="#393185"/>
</svg>
