<svg width="44" height="44" viewBox="0 0 44 44" fill="none" xmlns="http://www.w3.org/2000/svg">
<path fill-rule="evenodd" clip-rule="evenodd" d="M6.44531 6.4436C10.5669 2.31928 16.1666 0 22 0C27.8334 0 33.4331 2.31928 37.5547 6.4436C41.6797 10.5679 44 16.1676 44 22C44 27.8324 41.6797 33.4321 37.5547 37.5564C33.4331 41.6807 27.8334 44 22 44C16.1666 44 10.5669 41.6807 6.44531 37.5564C2.32031 33.4321 0 27.8324 0 22C0.00115967 16.1651 2.31952 10.5695 6.44531 6.4436ZM22.7873 16.2415C20.6492 17.1314 16.3729 18.9736 9.95856 21.7676C8.91699 22.1818 8.37042 22.5871 8.32227 22.9831C8.23761 23.652 9.07544 23.9159 10.2139 24.2744C10.37 24.3236 10.5318 24.3745 10.6976 24.4286C11.8217 24.7936 13.3342 25.2209 14.1179 25.2377C14.8329 25.2532 15.627 24.9593 16.5035 24.3564C22.4985 20.3115 25.5889 18.2668 25.7848 18.2228C25.9223 18.1919 26.1113 18.1527 26.2385 18.2672C26.3691 18.3813 26.3554 18.5979 26.3417 18.656C26.2606 19.0093 22.9821 22.0574 21.2761 23.6436C20.7396 24.1423 20.3586 24.4966 20.2814 24.577C20.1087 24.7565 19.9327 24.9261 19.7635 25.0892C18.7203 26.0948 17.9376 26.8493 19.807 28.0809C20.7132 28.6778 21.4366 29.1705 22.1595 29.6629C22.9366 30.1922 23.7131 30.7212 24.7158 31.3788C24.9736 31.5478 25.2197 31.7232 25.4595 31.8941C26.3705 32.5436 27.189 33.1271 28.2014 33.034C28.7892 32.98 29.3976 32.4273 29.7036 30.7786C30.4323 26.8822 31.8657 18.4404 32.1957 14.9617C32.2267 14.6571 32.1888 14.267 32.1614 14.0958C32.1304 13.9244 32.0685 13.6803 31.8485 13.4999C31.5839 13.2859 31.1782 13.2409 30.996 13.2438C30.1676 13.2587 28.8992 13.7001 22.7873 16.2415Z" fill="#2AABEE"/>
</svg>
