<svg width="14" height="13" viewBox="0 0 14 13" fill="none" xmlns="http://www.w3.org/2000/svg">
<path opacity="0.7" d="M13.2544 4.19891C13.2544 8.93961 7.11302 12.7769 6.85148 12.9353C6.78255 12.9778 6.70549 13 6.62722 13C6.54894 13 6.47189 12.9778 6.40296 12.9353C6.14142 12.7769 0 8.93961 0 4.19891C0.00109629 3.08567 0.387965 2.01839 1.07573 1.23122C1.7635 0.444041 2.69599 0.00125475 3.66864 0C4.89053 0 5.96035 0.601392 6.62722 1.61793C7.29408 0.601392 8.3639 0 9.5858 0C10.5584 0.00125475 11.4909 0.444041 12.1787 1.23122C12.8665 2.01839 13.2533 3.08567 13.2544 4.19891Z" fill="#7B5266"/>
</svg>
