<svg viewBox="0 0 130 130" fill="none" xmlns="http://www.w3.org/2000/svg">
<path d="M130 65C130 100.899 100.899 130 65 130C29.1015 130 0 100.899 0 65C0 29.1015 29.1015 0 65 0C100.899 0 130 29.1015 130 65Z" fill="#E5E1EC"/>
<path d="M87.8954 83.25V98C87.8954 98 87.8954 102 84.2263 102C80.5573 102 80.5573 98 80.5573 98V83.25C80.5573 68.5106 88.1222 55.5754 99.5 48.2818C103.178 45.924 105.142 47.7841 105.5 48.5C106.5 50.5 106 52.5 102.833 55C98.9727 57.5833 95.6682 60.9758 93.1506 64.9737C89.7186 70.4239 87.8942 76.7686 87.8954 83.25ZM51.2046 83.25V98C51.2046 98 51.2046 102 47.5356 102C43.8665 102 43.8665 98 43.8665 98V83.25C43.8673 76.7697 42.0432 70.426 38.6118 64.9766C36.0619 60.927 32.7045 57.4984 28.7794 54.9029C25.309 52.608 25.5 50 26.5001 48.5C27.0327 47.6044 28.7715 46.0083 32.5001 48.4319C37.4105 51.6237 41.6073 55.8759 44.7809 60.9152C48.9755 67.5755 51.2055 75.3292 51.2046 83.25ZM65.8809 64.5C61.0154 64.5 56.3492 62.5246 52.9088 59.0083C49.4684 55.4919 47.5356 50.7228 47.5356 45.75C47.5356 40.7772 49.4684 36.0081 52.9088 32.4917C56.3492 28.9754 61.0154 27 65.8809 27C70.7464 27 75.4127 28.9754 78.8531 32.4917C82.2935 36.0081 84.2263 40.7772 84.2263 45.75C84.2263 50.7228 82.2935 55.4919 78.8531 59.0083C75.4127 62.5246 70.7464 64.5 65.8809 64.5ZM65.8809 57C67.3264 57 68.7578 56.709 70.0932 56.1436C71.4287 55.5783 72.6421 54.7496 73.6642 53.705C74.6863 52.6603 75.4971 51.4201 76.0503 50.0552C76.6035 48.6903 76.8882 47.2274 76.8882 45.75C76.8882 44.2726 76.6035 42.8097 76.0503 41.4448C75.4971 40.0799 74.6863 38.8397 73.6642 37.795C72.6421 36.7504 71.4287 35.9217 70.0932 35.3564C68.7578 34.791 67.3264 34.5 65.8809 34.5C62.9616 34.5 60.1619 35.6853 58.0976 37.795C56.0334 39.9048 54.8737 42.7663 54.8737 45.75C54.8737 48.7337 56.0334 51.5952 58.0976 53.705C60.1619 55.8147 62.9616 57 65.8809 57Z" fill="#5C5698"/>
</svg>
