<svg viewBox="0 0 128 130" fill="none" xmlns="http://www.w3.org/2000/svg">
<ellipse cx="64.0002" cy="65" rx="63.4524" ry="65" fill="#E5E1EC"/>
<path d="M86.5927 75.8588C88.8693 71.7692 90.1647 67.0486 90.1647 61.9875C90.162 57.8354 89.2648 53.736 87.5382 49.987C86.4757 47.6798 85.1154 45.5409 83.5 43.6263C80.77 40.3906 82.4208 38 82.9298 37.4739C83.4388 36.9478 86.5407 35.0262 89.4463 38.5C91.266 40.6756 92.8304 43.0744 94.1021 45.6474C96.1819 49.8556 97.4376 54.4468 97.7971 59.1578C98.1565 63.8687 97.6126 68.6066 96.1967 73.0998C95.3207 75.8795 94.4915 77.5318 93 80C90.2807 84.5 86.5927 82.0958 86.5 82L86.4848 81.9843C85.9835 81.4669 84.5214 79.9576 86.5927 75.8588Z" fill="#5C5698"/>
<path d="M63.0822 14L78.5579 29.9958L63.0822 45.9917V33.9948C48.1481 33.9948 35.9996 46.5515 35.9996 61.9875C35.9915 66.6906 37.1396 71.2887 39.2997 75.3651C41 78.5738 40.7089 81.1137 39.3656 82.5022C38.0222 83.8907 34.9235 83.5 32.9565 80C29.981 74.7054 28.2617 68.5523 28.2617 61.9875C28.2617 52.4422 31.9303 43.2879 38.4604 36.5383C44.9905 29.7887 53.8472 25.9969 63.0822 25.9969V14Z" fill="#5C5698"/>
<path fill-rule="evenodd" clip-rule="evenodd" d="M54.2865 72.5846C56.8743 75.2355 59.9852 76.561 63.6191 76.561C67.253 76.561 70.3639 75.2355 72.9517 72.5846C75.5395 69.9337 76.8334 66.747 76.8334 63.0244C76.8334 59.3018 75.5395 56.1151 72.9517 53.4642C70.3639 50.8133 67.253 49.4878 63.6191 49.4878C59.9852 49.4878 56.8743 50.8133 54.2865 53.4642C51.6987 56.1151 50.4048 59.3018 50.4048 63.0244C50.4048 66.747 51.6987 69.9337 54.2865 72.5846ZM68.2871 67.8062C66.9921 69.1305 65.4361 69.7927 63.6191 69.7927C61.8043 69.795 60.2495 69.1328 58.9545 67.8062C57.6595 66.4796 57.012 64.8857 57.012 63.0244C57.0142 61.1654 57.6617 59.5726 58.9545 58.246C60.2473 56.9194 61.8021 56.2561 63.6191 56.2561C65.4383 56.2584 66.9943 56.9217 68.2871 58.246C69.5798 59.5703 70.2262 61.1631 70.2262 63.0244C70.2285 64.8879 69.5821 66.4819 68.2871 67.8062Z" fill="#5C5698"/>
<path fill-rule="evenodd" clip-rule="evenodd" d="M37.1905 100C37.1905 100 37.5004 101.5 38.5001 102.5C39.4998 103.5 41.0001 103.634 41.0001 103.634H86.0001C86.0001 103.634 87.2112 103.634 88.5001 102.5C89.789 101.366 90.0477 100 90.0477 100V94.1586C90.0499 92.2431 89.5687 90.4811 88.604 88.8725C87.6394 87.2639 86.3587 86.0366 84.762 85.1906C81.3483 83.4444 77.8795 82.1336 74.3557 81.2582C70.8319 80.3828 67.253 79.9451 63.6191 79.9451C59.9852 79.9474 56.4063 80.3851 52.8825 81.2582C49.3587 82.1313 45.8899 83.4421 42.4762 85.1906C40.8817 86.0389 39.6021 87.2662 38.6375 88.8725C37.6729 90.4789 37.1905 92.2409 37.1905 94.1586V100ZM83.4405 94.1586V96.8659H43.7977V94.1586C43.7955 93.5381 43.9463 92.9741 44.2503 92.4665C44.5542 91.9589 44.9539 91.564 45.4495 91.282C48.4227 89.7614 51.4234 88.6198 54.4517 87.8573C57.48 87.0947 60.5358 86.7134 63.6191 86.7134C66.7024 86.7157 69.7582 87.097 72.7865 87.8573C75.8148 88.6176 78.8155 89.7592 81.7887 91.282C82.2865 91.564 82.6862 91.9589 82.9879 92.4665C83.2897 92.9741 83.4405 93.5381 83.4405 94.1586Z" fill="#5C5698"/>
</svg>
