<svg viewBox="0 0 130 130" fill="none" xmlns="http://www.w3.org/2000/svg">
<circle cx="65" cy="65" r="65" fill="#E5E1EC"/>
<path fill-rule="evenodd" clip-rule="evenodd" d="M88.0382 24.6001C88.8035 22.5277 87.744 20.2274 85.6716 19.462C83.5993 18.6967 81.2989 19.7563 80.5336 21.8286C77.5686 29.8573 77.7508 38.7106 81.0438 46.6105L81.048 46.6205C83.0708 51.4362 83.62 56.7435 82.6263 61.8713C81.8897 65.6718 80.3301 69.2472 78.0757 72.3545L57.5352 51.8139C60.6669 49.5639 64.2606 48.0047 68.0782 47.2622C70.2467 46.8404 71.6628 44.7406 71.241 42.5721C70.8192 40.4036 68.7194 38.9876 66.5509 39.4093C59.7947 40.7234 53.5787 44.0083 48.6866 48.8498L48.6541 48.8823C43.8749 53.7221 40.6343 59.8675 39.3402 66.5449C38.5354 70.6978 38.5058 74.9409 39.23 79.0652C33.4557 78.0208 27.461 78.5003 21.8564 80.5234C19.7785 81.2734 18.702 83.5659 19.4521 85.6438C20.2021 87.7218 22.4946 88.7982 24.5725 88.0482C30.2301 86.006 36.4097 86.0288 42.0285 88.0815C43.9781 93.6894 43.9614 99.8147 41.9486 105.438C41.204 107.518 42.2866 109.807 44.3665 110.552C46.4464 111.296 48.736 110.214 49.4805 108.134C52.3698 100.063 52.1114 91.1991 48.7574 83.31C46.745 78.4943 46.2011 73.1911 47.1941 68.067C47.942 64.2078 49.5366 60.5799 51.8444 57.4368L72.4297 78.0222C69.2451 80.3585 65.5713 81.9755 61.6625 82.7384C59.4943 83.1616 58.0796 85.2624 58.5028 87.4306C58.926 89.5988 61.0268 91.0134 63.195 90.5902C69.9824 89.2655 76.2237 85.9554 81.1276 81.0794L81.1495 81.0575C85.9382 76.2218 89.1853 70.0746 90.4801 63.3933C91.2815 59.2582 91.3128 55.0334 90.5954 50.9264C96.4256 51.9894 102.479 51.5128 108.139 49.4786C110.218 48.7314 111.297 46.4404 110.55 44.3614C109.803 42.2825 107.512 41.2029 105.433 41.9501C99.7232 44.0023 93.489 43.9794 87.8157 41.9132C85.9065 36.3045 85.9736 30.1907 88.0382 24.6001Z" fill="#5C5698"/>
</svg>
